<?xml version="1.0" encoding="UTF-8"?>
<svg id="Calque_1" xmlns="http://www.w3.org/2000/svg" version="1.1" viewBox="0 0 25 25">
  <!-- Generator: Adobe Illustrator 29.4.0, SVG Export Plug-In . SVG Version: 2.1.0 Build 152)  -->
  <defs>
    <style>
      .st0 {
        fill: #fff;
      }
    </style>
  </defs>
  <path d="M12.5.12h0c6.83,0,12.38,5.54,12.38,12.38h0c0,6.83-5.54,12.38-12.38,12.38h0C5.66,24.87.12,19.33.12,12.5H.12C.12,5.66,5.66.12,12.5.12Z"/>
  <path d="M12.5.12h0c6.83,0,12.38,5.54,12.38,12.38h0c0,6.83-5.54,12.38-12.38,12.38h0C5.66,24.87.12,19.33.12,12.5H.12C.12,5.66,5.66.12,12.5.12Z"/>
  <rect class="st0" x="8.67" y="13.84" width="7.65" height=".9"/>
  <rect class="st0" x="7.55" y="10.24" width="9.9" height=".9"/>
</svg>