<?xml version="1.0" encoding="UTF-8"?>
<svg id="Calque_1" data-name="Calque 1" xmlns="http://www.w3.org/2000/svg" viewBox="0 0 12 12">
  <defs>
    <style>
      .cls-1 {
        fill: none;
        isolation: isolate;
        opacity: .4;
        stroke: #f2f2f2;
      }
    </style>
  </defs>
  <path class="cls-1" d="M4,.5H1c-.28,0-.5.22-.5.5v3c0,.28.22.5.5.5h3c.28,0,.5-.22.5-.5V1c0-.28-.22-.5-.5-.5Z"/>
  <path class="cls-1" d="M11,.5h-3c-.28,0-.5.22-.5.5v3c0,.28.22.5.5.5h3c.28,0,.5-.22.5-.5V1c0-.28-.22-.5-.5-.5Z"/>
  <path class="cls-1" d="M4,7.5H1c-.28,0-.5.22-.5.5v3c0,.28.22.5.5.5h3c.28,0,.5-.22.5-.5v-3c0-.28-.22-.5-.5-.5Z"/>
  <path class="cls-1" d="M11,7.5h-3c-.28,0-.5.22-.5.5v3c0,.28.22.5.5.5h3c.28,0,.5-.22.5-.5v-3c0-.28-.22-.5-.5-.5Z"/>
</svg>