<?xml version="1.0" encoding="UTF-8"?>
<svg id="Calque_1" data-name="Calque 1" xmlns="http://www.w3.org/2000/svg" viewBox="0 0 12 10">
  <defs>
    <style>
      .cls-1 {
        isolation: isolate;
      }

      .cls-1, .cls-2 {
        opacity: .4;
      }

      .cls-1, .cls-3 {
        fill: #f2f2f2;
      }
    </style>
  </defs>
  <path class="cls-1" d="M0,9c0-.55.45-1,1-1s1,.45,1,1-.45,1-1,1-1-.45-1-1Z"/>
  <g class="cls-2">
    <path class="cls-3" d="M0,5c0-.55.45-1,1-1s1,.45,1,1-.45,1-1,1-1-.45-1-1ZM0,1C0,.45.45,0,1,0s1,.45,1,1-.45,1-1,1-1-.45-1-1Z"/>
  </g>
  <path class="cls-1" d="M5,9c0-.55.45-1,1-1s1,.45,1,1-.45,1-1,1-1-.45-1-1Z"/>
  <g class="cls-2">
    <path class="cls-3" d="M5,5c0-.55.45-1,1-1s1,.45,1,1-.45,1-1,1-1-.45-1-1ZM5,1c0-.55.45-1,1-1s1,.45,1,1-.45,1-1,1-1-.45-1-1Z"/>
  </g>
  <path class="cls-1" d="M10,9c0-.55.45-1,1-1s1,.45,1,1-.45,1-1,1-1-.45-1-1Z"/>
  <g class="cls-2">
    <path class="cls-3" d="M10,5c0-.55.45-1,1-1s1,.45,1,1-.45,1-1,1-1-.45-1-1ZM10,1c0-.55.45-1,1-1s1,.45,1,1-.45,1-1,1-1-.45-1-1Z"/>
  </g>
</svg>