<?xml version="1.0" encoding="UTF-8"?>
<svg id="Calque_1" xmlns="http://www.w3.org/2000/svg" version="1.1" viewBox="0 0 12 10">
  <!-- Generator: Adobe Illustrator 29.6.1, SVG Export Plug-In . SVG Version: 2.1.1 Build 9)  -->
  <defs>
    <style>
      .st0 {
        isolation: isolate;
      }

      .st0, .st1 {
        opacity: .4;
      }

      .st0, .st2 {
        fill: #f2f2f2;
      }
    </style>
  </defs>
  <g class="st1">
    <path class="st2" d="M0,5c0-.55.45-1,1-1s1,.45,1,1-.45,1-1,1-1-.45-1-1Z"/>
  </g>
  <path class="st0" d="M5,9c0-.55.45-1,1-1s1,.45,1,1-.45,1-1,1-1-.45-1-1Z"/>
  <g class="st1">
    <path class="st2" d="M5,5c0-.55.45-1,1-1s1,.45,1,1-.45,1-1,1-1-.45-1-1ZM5,1c0-.55.45-1,1-1s1,.45,1,1-.45,1-1,1-1-.45-1-1Z"/>
  </g>
  <g class="st1">
    <path class="st2" d="M10,5c0-.55.45-1,1-1s1,.45,1,1-.45,1-1,1-1-.45-1-1Z"/>
  </g>
</svg>