<?xml version="1.0" encoding="UTF-8"?>
<svg id="Calque_1" xmlns="http://www.w3.org/2000/svg" version="1.1" viewBox="0 0 36 20">
  <!-- Generator: Adobe Illustrator 29.5.0, SVG Export Plug-In . SVG Version: 2.1.0 Build 137)  -->
  <defs>
    <style>
      .st0 {
        fill: red;
      }
    </style>
  </defs>
  <path class="st0" d="M26,1c5,0,9,4,9,9s-4,9-9,9H10c-5,0-9-4-9-9S5,1,10,1h16M26,0H10C4.5,0,0,4.5,0,10s4.5,10,10,10h16c5.5,0,10-4.5,10-10S31.5,0,26,0h0Z"/>
  <path class="st0" d="M26,3.6h0c3.5,0,6.4,2.9,6.4,6.4h0c0,3.5-2.9,6.4-6.4,6.4h0c-3.5,0-6.4-2.9-6.4-6.4h0c0-3.5,2.9-6.4,6.4-6.4Z"/>
</svg>