<?xml version="1.0" encoding="UTF-8"?>
<svg id="Calque_1" xmlns="http://www.w3.org/2000/svg" version="1.1" viewBox="0 0 580.1 122.6">
  <!-- Generator: Adobe Illustrator 29.5.0, SVG Export Plug-In . SVG Version: 2.1.0 Build 137)  -->
  <path d="M73.91,1.54c10.75,0,19.95.26,27.61.77,7.65.52,14.46,1.46,20.4,2.83,5.95,1.37,10.72,3.06,14.32,5.06s6.57,4.72,8.92,8.14c2.34,3.43,3.97,7.24,4.89,11.41.91,4.17,1.37,9.29,1.37,15.34h-42.53c0-1.83-.31-3.26-.94-4.28-.63-1.03-2.03-2.03-4.2-3s-5.6-1.66-10.29-2.06c-4.69-.4-10.86-.6-18.52-.6-10.17,0-17.61.23-22.29.68-4.69.46-7.65,1.03-8.92,1.72-1.26.68-1.88,1.88-1.88,3.6.11,1.49,1.69,2.48,4.72,3s12.15,1.4,27.35,2.66c.22,0,.4.06.52.17,30.18,2.41,49.33,4.58,57.44,6.52,10.63,2.52,17.49,6.8,20.59,12.87,2.06,4.11,3.08,10.06,3.08,17.83,0,5.49-.37,10.01-1.12,13.55s-2.23,6.8-4.46,9.78c-2.23,2.97-5.11,5.29-8.66,6.94-3.54,1.66-8.46,3.06-14.74,4.2-6.29,1.14-13.47,1.92-21.53,2.32-8.06.4-18.09.6-30.1.6-8.23,0-15.34-.11-21.35-.34-6.01-.23-11.61-.63-16.81-1.2-5.21-.57-9.52-1.31-12.94-2.23-3.43-.91-6.52-2.17-9.26-3.77-2.75-1.6-4.89-3.35-6.43-5.23s-2.83-4.31-3.86-7.29c-1.03-2.97-1.72-6.12-2.06-9.43s-.52-7.26-.52-11.83h41.33c0,1.95.31,3.43.94,4.46.63,1.03,2.14,1.88,4.55,2.57,2.4.68,5.74,1.14,10.03,1.37,4.29.23,10.38.35,18.27.35h4.11c13.03,0,20.95-.23,23.75-.69,2.8-.45,4.2-1.94,4.2-4.46,0-1.48-.97-2.46-2.91-2.92-1.95-.45-7.32-.97-16.13-1.54-6.4-.45-11.72-.86-15.94-1.2-6.75-.57-11.92-1.03-15.52-1.37s-8.06-.83-13.38-1.46-9.35-1.26-12.09-1.89c-2.74-.62-6-1.42-9.78-2.4-3.77-.97-6.6-2.08-8.49-3.34-1.89-1.26-3.94-2.74-6.18-4.46-2.23-1.72-3.83-3.66-4.8-5.83s-1.83-4.66-2.57-7.46c-.74-2.81-1.11-5.86-1.11-9.18,0-4.01.28-7.61.85-10.81.57-3.2,1.37-6.06,2.4-8.57,1.03-2.52,2.46-4.75,4.29-6.69,1.83-1.94,3.78-3.63,5.83-5.06,2.06-1.43,4.72-2.63,7.98-3.6s6.52-1.74,9.78-2.32c3.26-.57,7.29-1.03,12.09-1.37s9.52-.57,14.14-.69c4.63-.11,10.15-.17,16.55-.17Z"/>
  <path d="M260.03,1.02h39.96v120.56h-39.96v-41.85h-71.69v41.85h-39.96V1.02h39.96v41.85h71.69V1.02Z"/>
  <path d="M284.03,121.58V1.02h39.96v120.56h-39.96Z"/>
  <path d="M328.56,1.02h129.13v39.96h-89.17v8.41h69.79v35.32h-69.79v36.87h-39.96V1.02Z"/>
  <path d="M421.13,1.02h158.97v39.96h-59.51v80.6h-39.79V40.98h-59.68V1.02Z"/>
</svg>