<?xml version="1.0" encoding="UTF-8"?>
<svg id="Calque_1" xmlns="http://www.w3.org/2000/svg" version="1.1" viewBox="0 0 360 179.7">
  <!-- Generator: Adobe Illustrator 29.0.0, SVG Export Plug-In . SVG Version: 2.1.0 Build 186)  -->
  <path d="M59,2.1c34.7,0,39.5,13.2,39.7,51,.2,41.2-5.6,55.8-41.6,55.8h-5.4v68.4h-30.7V2.1h38.1ZM51.7,12.6v85.7h4.6c12.3,0,12.3-31.4,12.3-42.5s.8-43.3-12.1-43.3h-4.8Z"/>
  <path d="M109.4,2.1h22.2l29.5,175.2h-30.7l-7.3-46.4-28.9-1.7-6.9,48.1h-12.1L109.4,2.1ZM120.9,116.7l-13.2-83.9-12.1,85.1,25.3-1.3Z"/>
  <path d="M187.4,2.1c35.8,0,42.2,8.2,42.2,49.6s.2,39.9-13.8,48.3l19.7,77.4h-32l-15.5-72.4h-5.4v72.4h-30.7V2.1h35.6ZM182.6,12.6v81.8h4.6c13.2,0,12.3-28.2,12.3-41.6s1.9-40.2-12.1-40.2h-4.8Z"/>
  <path d="M232.6,2.1h31v175.2h-31V2.1Z"/>
  <path d="M299.9,0c21.3,0,37,14,37,44.1v11.5h-30.1v-24.3c0-7.9-.6-20.7-7.1-20.7s-8.4,15.1-8.2,27c1,42.7,47.5,43.1,47.5,94.1s-14.6,47.9-38.1,47.9-40.2-9.2-40.2-44.3v-14h30.7v19.9c0,11.3,1,27.6,8.6,27.6s8.2-13.8,8.2-22.4c-.8-56-47.5-46-47.5-100.4S278,0,299.9,0Z"/>
</svg>